<?xml version="1.0" encoding="utf-8" standalone="no"?>
<!DOCTYPE svg PUBLIC "-//W3C//DTD SVG 1.1//EN"
  "http://www.w3.org/Graphics/SVG/1.1/DTD/svg11.dtd">
<!-- Created with matplotlib (https://matplotlib.org/) -->
<svg height="360pt" version="1.1" viewBox="0 0 432 360" width="432pt" xmlns="http://www.w3.org/2000/svg" xmlns:xlink="http://www.w3.org/1999/xlink">
 <metadata>
  <rdf:RDF xmlns:cc="http://creativecommons.org/ns#" xmlns:dc="http://purl.org/dc/elements/1.1/" xmlns:rdf="http://www.w3.org/1999/02/22-rdf-syntax-ns#">
   <cc:Work>
    <dc:type rdf:resource="http://purl.org/dc/dcmitype/StillImage"/>
    <dc:date>2021-05-18T20:04:41.636864</dc:date>
    <dc:format>image/svg+xml</dc:format>
    <dc:creator>
     <cc:Agent>
      <dc:title>Matplotlib v3.3.1, https://matplotlib.org/</dc:title>
     </cc:Agent>
    </dc:creator>
   </cc:Work>
  </rdf:RDF>
 </metadata>
 <defs>
  <style type="text/css">*{stroke-linecap:butt;stroke-linejoin:round;}</style>
 </defs>
 <g id="figure_1">
  <g id="patch_1">
   <path d="M 0 360 
L 432 360 
L 432 0 
L 0 0 
z
" style="fill:#ffffff;"/>
  </g>
  <g id="axes_1">
   <g id="patch_2">
    <path d="M 54 320.4 
L 388.8 320.4 
L 388.8 43.2 
L 54 43.2 
z
" style="fill:#ffffff;"/>
   </g>
   <g id="PathCollection_1">
    <defs>
     <path d="M 0 1.581139 
C 0.419323 1.581139 0.821528 1.41454 1.118034 1.118034 
C 1.41454 0.821528 1.581139 0.419323 1.581139 0 
C 1.581139 -0.419323 1.41454 -0.821528 1.118034 -1.118034 
C 0.821528 -1.41454 0.419323 -1.581139 0 -1.581139 
C -0.419323 -1.581139 -0.821528 -1.41454 -1.118034 -1.118034 
C -1.41454 -0.821528 -1.581139 -0.419323 -1.581139 0 
C -1.581139 0.419323 -1.41454 0.821528 -1.118034 1.118034 
C -0.821528 1.41454 -0.419323 1.581139 0 1.581139 
z
" id="m22807ffd66" style="stroke:#a9a9a9;"/>
    </defs>
    <g clip-path="url(#p25ac460a73)">
     <use style="fill:#a9a9a9;stroke:#a9a9a9;" x="211.580579" xlink:href="#m22807ffd66" y="164.26955"/>
     <use style="fill:#a9a9a9;stroke:#a9a9a9;" x="219.861911" xlink:href="#m22807ffd66" y="155.151655"/>
     <use style="fill:#a9a9a9;stroke:#a9a9a9;" x="181.25462" xlink:href="#m22807ffd66" y="152.840108"/>
     <use style="fill:#a9a9a9;stroke:#a9a9a9;" x="218.128297" xlink:href="#m22807ffd66" y="143.277611"/>
     <use style="fill:#a9a9a9;stroke:#a9a9a9;" x="184.017496" xlink:href="#m22807ffd66" y="137.827733"/>
     <use style="fill:#a9a9a9;stroke:#a9a9a9;" x="198.239" xlink:href="#m22807ffd66" y="145.170165"/>
     <use style="fill:#a9a9a9;stroke:#a9a9a9;" x="210.604633" xlink:href="#m22807ffd66" y="132.000211"/>
     <use style="fill:#a9a9a9;stroke:#a9a9a9;" x="214.056696" xlink:href="#m22807ffd66" y="159.219124"/>
     <use style="fill:#a9a9a9;stroke:#a9a9a9;" x="222.503821" xlink:href="#m22807ffd66" y="147.966513"/>
     <use style="fill:#a9a9a9;stroke:#a9a9a9;" x="170.6245" xlink:href="#m22807ffd66" y="149.304526"/>
     <use style="fill:#a9a9a9;stroke:#a9a9a9;" x="221.54419" xlink:href="#m22807ffd66" y="149.777406"/>
     <use style="fill:#a9a9a9;stroke:#a9a9a9;" x="176.27469" xlink:href="#m22807ffd66" y="152.125155"/>
     <use style="fill:#a9a9a9;stroke:#a9a9a9;" x="206.044338" xlink:href="#m22807ffd66" y="146.366208"/>
     <use style="fill:#a9a9a9;stroke:#a9a9a9;" x="202.413474" xlink:href="#m22807ffd66" y="158.613619"/>
     <use style="fill:#a9a9a9;stroke:#a9a9a9;" x="196.670394" xlink:href="#m22807ffd66" y="154.477572"/>
     <use style="fill:#a9a9a9;stroke:#a9a9a9;" x="211.593697" xlink:href="#m22807ffd66" y="159.204155"/>
     <use style="fill:#a9a9a9;stroke:#a9a9a9;" x="214.205816" xlink:href="#m22807ffd66" y="145.124588"/>
     <use style="fill:#a9a9a9;stroke:#a9a9a9;" x="198.531431" xlink:href="#m22807ffd66" y="157.524252"/>
     <use style="fill:#a9a9a9;stroke:#a9a9a9;" x="216.321738" xlink:href="#m22807ffd66" y="142.202837"/>
     <use style="fill:#a9a9a9;stroke:#a9a9a9;" x="211.395859" xlink:href="#m22807ffd66" y="162.836597"/>
     <use style="fill:#a9a9a9;stroke:#a9a9a9;" x="183.301254" xlink:href="#m22807ffd66" y="136.575356"/>
     <use style="fill:#a9a9a9;stroke:#a9a9a9;" x="212.47044" xlink:href="#m22807ffd66" y="154.009598"/>
     <use style="fill:#a9a9a9;stroke:#a9a9a9;" x="216.383801" xlink:href="#m22807ffd66" y="158.521281"/>
     <use style="fill:#a9a9a9;stroke:#a9a9a9;" x="222.830954" xlink:href="#m22807ffd66" y="149.507546"/>
     <use style="fill:#a9a9a9;stroke:#a9a9a9;" x="195.763051" xlink:href="#m22807ffd66" y="143.344315"/>
     <use style="fill:#a9a9a9;stroke:#a9a9a9;" x="197.454221" xlink:href="#m22807ffd66" y="153.97157"/>
     <use style="fill:#a9a9a9;stroke:#a9a9a9;" x="213.171867" xlink:href="#m22807ffd66" y="140.841922"/>
     <use style="fill:#a9a9a9;stroke:#a9a9a9;" x="222.883844" xlink:href="#m22807ffd66" y="147.060173"/>
     <use style="fill:#a9a9a9;stroke:#a9a9a9;" x="209.466601" xlink:href="#m22807ffd66" y="141.502562"/>
     <use style="fill:#a9a9a9;stroke:#a9a9a9;" x="203.925674" xlink:href="#m22807ffd66" y="146.969258"/>
    </g>
   </g>
   <g id="PathCollection_2">
    <defs>
     <path d="M 0 1.581139 
C 0.419323 1.581139 0.821528 1.41454 1.118034 1.118034 
C 1.41454 0.821528 1.581139 0.419323 1.581139 0 
C 1.581139 -0.419323 1.41454 -0.821528 1.118034 -1.118034 
C 0.821528 -1.41454 0.419323 -1.581139 0 -1.581139 
C -0.419323 -1.581139 -0.821528 -1.41454 -1.118034 -1.118034 
C -1.41454 -0.821528 -1.581139 -0.419323 -1.581139 0 
C -1.581139 0.419323 -1.41454 0.821528 -1.118034 1.118034 
C -0.821528 1.41454 -0.419323 1.581139 0 1.581139 
z
" id="m5dac3acedb" style="stroke:#006400;"/>
    </defs>
    <g clip-path="url(#p25ac460a73)">
     <use style="fill:#006400;stroke:#006400;" x="55.032832" xlink:href="#m5dac3acedb" y="161.541849"/>
     <use style="fill:#006400;stroke:#006400;" x="67.137071" xlink:href="#m5dac3acedb" y="161.371489"/>
     <use style="fill:#006400;stroke:#006400;" x="56.587946" xlink:href="#m5dac3acedb" y="163.741399"/>
     <use style="fill:#006400;stroke:#006400;" x="81.730151" xlink:href="#m5dac3acedb" y="147.115488"/>
     <use style="fill:#006400;stroke:#006400;" x="69.457925" xlink:href="#m5dac3acedb" y="150.134474"/>
     <use style="fill:#006400;stroke:#006400;" x="76.032916" xlink:href="#m5dac3acedb" y="175.581922"/>
     <use style="fill:#006400;stroke:#006400;" x="64.735171" xlink:href="#m5dac3acedb" y="133.559831"/>
     <use style="fill:#006400;stroke:#006400;" x="70.397441" xlink:href="#m5dac3acedb" y="165.325719"/>
     <use style="fill:#006400;stroke:#006400;" x="64.790012" xlink:href="#m5dac3acedb" y="148.516236"/>
     <use style="fill:#006400;stroke:#006400;" x="90.895691" xlink:href="#m5dac3acedb" y="162.534911"/>
     <use style="fill:#006400;stroke:#006400;" x="57.868774" xlink:href="#m5dac3acedb" y="166.650743"/>
     <use style="fill:#006400;stroke:#006400;" x="62.86377" xlink:href="#m5dac3acedb" y="161.989995"/>
     <use style="fill:#006400;stroke:#006400;" x="56.699164" xlink:href="#m5dac3acedb" y="163.428972"/>
     <use style="fill:#006400;stroke:#006400;" x="64.632279" xlink:href="#m5dac3acedb" y="146.573414"/>
     <use style="fill:#006400;stroke:#006400;" x="62.353598" xlink:href="#m5dac3acedb" y="140.44715"/>
     <use style="fill:#006400;stroke:#006400;" x="70.042431" xlink:href="#m5dac3acedb" y="160.800441"/>
     <use style="fill:#006400;stroke:#006400;" x="62.18217" xlink:href="#m5dac3acedb" y="141.595209"/>
     <use style="fill:#006400;stroke:#006400;" x="67.531733" xlink:href="#m5dac3acedb" y="139.52568"/>
     <use style="fill:#006400;stroke:#006400;" x="114.835025" xlink:href="#m5dac3acedb" y="178.374548"/>
     <use style="fill:#006400;stroke:#006400;" x="69.6661" xlink:href="#m5dac3acedb" y="150.466184"/>
     <use style="fill:#006400;stroke:#006400;" x="83.249521" xlink:href="#m5dac3acedb" y="138.179728"/>
     <use style="fill:#006400;stroke:#006400;" x="59.422493" xlink:href="#m5dac3acedb" y="147.413371"/>
     <use style="fill:#006400;stroke:#006400;" x="71.442118" xlink:href="#m5dac3acedb" y="163.277552"/>
     <use style="fill:#006400;stroke:#006400;" x="77.131648" xlink:href="#m5dac3acedb" y="149.56945"/>
     <use style="fill:#006400;stroke:#006400;" x="99.716409" xlink:href="#m5dac3acedb" y="181.402913"/>
     <use style="fill:#006400;stroke:#006400;" x="78.500364" xlink:href="#m5dac3acedb" y="164.441276"/>
     <use style="fill:#006400;stroke:#006400;" x="54" xlink:href="#m5dac3acedb" y="165.414523"/>
     <use style="fill:#006400;stroke:#006400;" x="66.985507" xlink:href="#m5dac3acedb" y="148.878597"/>
     <use style="fill:#006400;stroke:#006400;" x="95.86894" xlink:href="#m5dac3acedb" y="178.412934"/>
     <use style="fill:#006400;stroke:#006400;" x="56.672993" xlink:href="#m5dac3acedb" y="149.176305"/>
    </g>
   </g>
   <g id="PathCollection_3">
    <defs>
     <path d="M 0 1.581139 
C 0.419323 1.581139 0.821528 1.41454 1.118034 1.118034 
C 1.41454 0.821528 1.581139 0.419323 1.581139 0 
C 1.581139 -0.419323 1.41454 -0.821528 1.118034 -1.118034 
C 0.821528 -1.41454 0.419323 -1.581139 0 -1.581139 
C -0.419323 -1.581139 -0.821528 -1.41454 -1.118034 -1.118034 
C -1.41454 -0.821528 -1.581139 -0.419323 -1.581139 0 
C -1.581139 0.419323 -1.41454 0.821528 -1.118034 1.118034 
C -0.821528 1.41454 -0.419323 1.581139 0 1.581139 
z
" id="m48974b0e0d" style="stroke:#00008b;"/>
    </defs>
    <g clip-path="url(#p25ac460a73)">
     <use style="fill:#00008b;stroke:#00008b;" x="239.326716" xlink:href="#m48974b0e0d" y="58.080299"/>
     <use style="fill:#00008b;stroke:#00008b;" x="243.414456" xlink:href="#m48974b0e0d" y="49.202247"/>
     <use style="fill:#00008b;stroke:#00008b;" x="250.722743" xlink:href="#m48974b0e0d" y="63.163853"/>
     <use style="fill:#00008b;stroke:#00008b;" x="239.501799" xlink:href="#m48974b0e0d" y="58.89925"/>
     <use style="fill:#00008b;stroke:#00008b;" x="244.403279" xlink:href="#m48974b0e0d" y="53.959756"/>
     <use style="fill:#00008b;stroke:#00008b;" x="250.127329" xlink:href="#m48974b0e0d" y="47.668577"/>
     <use style="fill:#00008b;stroke:#00008b;" x="245.069397" xlink:href="#m48974b0e0d" y="46.716155"/>
     <use style="fill:#00008b;stroke:#00008b;" x="255.339993" xlink:href="#m48974b0e0d" y="57.784829"/>
     <use style="fill:#00008b;stroke:#00008b;" x="230.987053" xlink:href="#m48974b0e0d" y="66.497448"/>
     <use style="fill:#00008b;stroke:#00008b;" x="249.861125" xlink:href="#m48974b0e0d" y="51.60714"/>
     <use style="fill:#00008b;stroke:#00008b;" x="239.239319" xlink:href="#m48974b0e0d" y="69.49612"/>
     <use style="fill:#00008b;stroke:#00008b;" x="244.807159" xlink:href="#m48974b0e0d" y="61.534858"/>
     <use style="fill:#00008b;stroke:#00008b;" x="240.072661" xlink:href="#m48974b0e0d" y="52.131625"/>
     <use style="fill:#00008b;stroke:#00008b;" x="235.30585" xlink:href="#m48974b0e0d" y="66.009785"/>
     <use style="fill:#00008b;stroke:#00008b;" x="250.929654" xlink:href="#m48974b0e0d" y="62.983773"/>
     <use style="fill:#00008b;stroke:#00008b;" x="232.848398" xlink:href="#m48974b0e0d" y="55.021749"/>
     <use style="fill:#00008b;stroke:#00008b;" x="237.178729" xlink:href="#m48974b0e0d" y="66.628638"/>
     <use style="fill:#00008b;stroke:#00008b;" x="229.686889" xlink:href="#m48974b0e0d" y="70.996092"/>
     <use style="fill:#00008b;stroke:#00008b;" x="241.645833" xlink:href="#m48974b0e0d" y="47.27315"/>
     <use style="fill:#00008b;stroke:#00008b;" x="231.717055" xlink:href="#m48974b0e0d" y="70.047245"/>
     <use style="fill:#00008b;stroke:#00008b;" x="215.482952" xlink:href="#m48974b0e0d" y="92.654453"/>
     <use style="fill:#00008b;stroke:#00008b;" x="246.58793" xlink:href="#m48974b0e0d" y="57.074469"/>
     <use style="fill:#00008b;stroke:#00008b;" x="202.223537" xlink:href="#m48974b0e0d" y="109.315566"/>
     <use style="fill:#00008b;stroke:#00008b;" x="236.498767" xlink:href="#m48974b0e0d" y="63.758023"/>
     <use style="fill:#00008b;stroke:#00008b;" x="236.914464" xlink:href="#m48974b0e0d" y="69.513614"/>
     <use style="fill:#00008b;stroke:#00008b;" x="246.237352" xlink:href="#m48974b0e0d" y="44.877825"/>
     <use style="fill:#00008b;stroke:#00008b;" x="240.43272" xlink:href="#m48974b0e0d" y="71.503376"/>
     <use style="fill:#00008b;stroke:#00008b;" x="246.21046" xlink:href="#m48974b0e0d" y="43.430251"/>
     <use style="fill:#00008b;stroke:#00008b;" x="237.834245" xlink:href="#m48974b0e0d" y="65.428799"/>
     <use style="fill:#00008b;stroke:#00008b;" x="242.490644" xlink:href="#m48974b0e0d" y="46.764815"/>
    </g>
   </g>
   <g id="PathCollection_4">
    <defs>
     <path d="M 0 1.581139 
C 0.419323 1.581139 0.821528 1.41454 1.118034 1.118034 
C 1.41454 0.821528 1.581139 0.419323 1.581139 0 
C 1.581139 -0.419323 1.41454 -0.821528 1.118034 -1.118034 
C 0.821528 -1.41454 0.419323 -1.581139 0 -1.581139 
C -0.419323 -1.581139 -0.821528 -1.41454 -1.118034 -1.118034 
C -1.41454 -0.821528 -1.581139 -0.419323 -1.581139 0 
C -1.581139 0.419323 -1.41454 0.821528 -1.118034 1.118034 
C -0.821528 1.41454 -0.419323 1.581139 0 1.581139 
z
" id="m85a29da4aa" style="stroke:#b8860b;"/>
    </defs>
    <g clip-path="url(#p25ac460a73)">
     <use style="fill:#b8860b;stroke:#b8860b;" x="365.594994" xlink:href="#m85a29da4aa" y="136.562803"/>
     <use style="fill:#b8860b;stroke:#b8860b;" x="370.831206" xlink:href="#m85a29da4aa" y="121.078749"/>
     <use style="fill:#b8860b;stroke:#b8860b;" x="362.226703" xlink:href="#m85a29da4aa" y="133.150418"/>
     <use style="fill:#b8860b;stroke:#b8860b;" x="387.072277" xlink:href="#m85a29da4aa" y="114.896822"/>
     <use style="fill:#b8860b;stroke:#b8860b;" x="383.600121" xlink:href="#m85a29da4aa" y="123.633411"/>
     <use style="fill:#b8860b;stroke:#b8860b;" x="375.756701" xlink:href="#m85a29da4aa" y="114.837603"/>
     <use style="fill:#b8860b;stroke:#b8860b;" x="364.67596" xlink:href="#m85a29da4aa" y="130.733544"/>
     <use style="fill:#b8860b;stroke:#b8860b;" x="382.873706" xlink:href="#m85a29da4aa" y="125.037137"/>
     <use style="fill:#b8860b;stroke:#b8860b;" x="382.164801" xlink:href="#m85a29da4aa" y="123.866927"/>
     <use style="fill:#b8860b;stroke:#b8860b;" x="375.700428" xlink:href="#m85a29da4aa" y="123.840684"/>
     <use style="fill:#b8860b;stroke:#b8860b;" x="365.034374" xlink:href="#m85a29da4aa" y="128.121712"/>
     <use style="fill:#b8860b;stroke:#b8860b;" x="362.098766" xlink:href="#m85a29da4aa" y="135.403448"/>
     <use style="fill:#b8860b;stroke:#b8860b;" x="377.778819" xlink:href="#m85a29da4aa" y="121.800897"/>
     <use style="fill:#b8860b;stroke:#b8860b;" x="376.122924" xlink:href="#m85a29da4aa" y="135.141477"/>
     <use style="fill:#b8860b;stroke:#b8860b;" x="380.498559" xlink:href="#m85a29da4aa" y="133.547577"/>
     <use style="fill:#b8860b;stroke:#b8860b;" x="386.954844" xlink:href="#m85a29da4aa" y="123.071998"/>
     <use style="fill:#b8860b;stroke:#b8860b;" x="373.839216" xlink:href="#m85a29da4aa" y="128.946912"/>
     <use style="fill:#b8860b;stroke:#b8860b;" x="383.507436" xlink:href="#m85a29da4aa" y="127.090375"/>
     <use style="fill:#b8860b;stroke:#b8860b;" x="364.290602" xlink:href="#m85a29da4aa" y="135.998843"/>
     <use style="fill:#b8860b;stroke:#b8860b;" x="356.69991" xlink:href="#m85a29da4aa" y="131.040923"/>
     <use style="fill:#b8860b;stroke:#b8860b;" x="361.814689" xlink:href="#m85a29da4aa" y="123.807706"/>
     <use style="fill:#b8860b;stroke:#b8860b;" x="360.826143" xlink:href="#m85a29da4aa" y="128.364111"/>
     <use style="fill:#b8860b;stroke:#b8860b;" x="362.94994" xlink:href="#m85a29da4aa" y="124.762684"/>
     <use style="fill:#b8860b;stroke:#b8860b;" x="373.114885" xlink:href="#m85a29da4aa" y="131.212195"/>
     <use style="fill:#b8860b;stroke:#b8860b;" x="286.56413" xlink:href="#m85a29da4aa" y="301.830523"/>
     <use style="fill:#b8860b;stroke:#b8860b;" x="371.289493" xlink:href="#m85a29da4aa" y="125.387589"/>
     <use style="fill:#b8860b;stroke:#b8860b;" x="388.8" xlink:href="#m85a29da4aa" y="123.386798"/>
     <use style="fill:#b8860b;stroke:#b8860b;" x="378.295276" xlink:href="#m85a29da4aa" y="114.458943"/>
     <use style="fill:#b8860b;stroke:#b8860b;" x="382.516994" xlink:href="#m85a29da4aa" y="126.252549"/>
     <use style="fill:#b8860b;stroke:#b8860b;" x="359.199675" xlink:href="#m85a29da4aa" y="122.911207"/>
    </g>
   </g>
   <g id="PathCollection_5">
    <defs>
     <path d="M 0 1.581139 
C 0.419323 1.581139 0.821528 1.41454 1.118034 1.118034 
C 1.41454 0.821528 1.581139 0.419323 1.581139 0 
C 1.581139 -0.419323 1.41454 -0.821528 1.118034 -1.118034 
C 0.821528 -1.41454 0.419323 -1.581139 0 -1.581139 
C -0.419323 -1.581139 -0.821528 -1.41454 -1.118034 -1.118034 
C -1.41454 -0.821528 -1.581139 -0.419323 -1.581139 0 
C -1.581139 0.419323 -1.41454 0.821528 -1.118034 1.118034 
C -0.821528 1.41454 -0.419323 1.581139 0 1.581139 
z
" id="m67ad37c1cd" style="stroke:#8b0000;"/>
    </defs>
    <g clip-path="url(#p25ac460a73)">
     <use style="fill:#8b0000;stroke:#8b0000;" x="264.594035" xlink:href="#m67ad37c1cd" y="310.149997"/>
     <use style="fill:#8b0000;stroke:#8b0000;" x="273.288252" xlink:href="#m67ad37c1cd" y="301.372419"/>
     <use style="fill:#8b0000;stroke:#8b0000;" x="272.548564" xlink:href="#m67ad37c1cd" y="312.912829"/>
     <use style="fill:#8b0000;stroke:#8b0000;" x="278.932316" xlink:href="#m67ad37c1cd" y="303.57866"/>
     <use style="fill:#8b0000;stroke:#8b0000;" x="271.654881" xlink:href="#m67ad37c1cd" y="308.374308"/>
     <use style="fill:#8b0000;stroke:#8b0000;" x="267.633536" xlink:href="#m67ad37c1cd" y="308.516074"/>
     <use style="fill:#8b0000;stroke:#8b0000;" x="279.132018" xlink:href="#m67ad37c1cd" y="318.120989"/>
     <use style="fill:#8b0000;stroke:#8b0000;" x="266.545479" xlink:href="#m67ad37c1cd" y="306.289488"/>
     <use style="fill:#8b0000;stroke:#8b0000;" x="277.431593" xlink:href="#m67ad37c1cd" y="305.720532"/>
     <use style="fill:#8b0000;stroke:#8b0000;" x="288.697074" xlink:href="#m67ad37c1cd" y="314.166881"/>
     <use style="fill:#8b0000;stroke:#8b0000;" x="281.937159" xlink:href="#m67ad37c1cd" y="310.528325"/>
     <use style="fill:#8b0000;stroke:#8b0000;" x="256.498225" xlink:href="#m67ad37c1cd" y="298.276157"/>
     <use style="fill:#8b0000;stroke:#8b0000;" x="275.587507" xlink:href="#m67ad37c1cd" y="320.4"/>
     <use style="fill:#8b0000;stroke:#8b0000;" x="274.664078" xlink:href="#m67ad37c1cd" y="294.034316"/>
     <use style="fill:#8b0000;stroke:#8b0000;" x="279.947089" xlink:href="#m67ad37c1cd" y="301.175284"/>
     <use style="fill:#8b0000;stroke:#8b0000;" x="277.682059" xlink:href="#m67ad37c1cd" y="314.767607"/>
     <use style="fill:#8b0000;stroke:#8b0000;" x="269.709063" xlink:href="#m67ad37c1cd" y="314.050844"/>
     <use style="fill:#8b0000;stroke:#8b0000;" x="264.657063" xlink:href="#m67ad37c1cd" y="304.052413"/>
     <use style="fill:#8b0000;stroke:#8b0000;" x="268.244134" xlink:href="#m67ad37c1cd" y="298.284309"/>
     <use style="fill:#8b0000;stroke:#8b0000;" x="288.067162" xlink:href="#m67ad37c1cd" y="309.806841"/>
     <use style="fill:#8b0000;stroke:#8b0000;" x="288.655535" xlink:href="#m67ad37c1cd" y="310.941143"/>
     <use style="fill:#8b0000;stroke:#8b0000;" x="284.033958" xlink:href="#m67ad37c1cd" y="306.700588"/>
     <use style="fill:#8b0000;stroke:#8b0000;" x="263.946108" xlink:href="#m67ad37c1cd" y="316.714064"/>
     <use style="fill:#8b0000;stroke:#8b0000;" x="274.694388" xlink:href="#m67ad37c1cd" y="310.836183"/>
     <use style="fill:#8b0000;stroke:#8b0000;" x="281.236575" xlink:href="#m67ad37c1cd" y="305.481348"/>
     <use style="fill:#8b0000;stroke:#8b0000;" x="271.993679" xlink:href="#m67ad37c1cd" y="313.291732"/>
     <use style="fill:#8b0000;stroke:#8b0000;" x="279.50362" xlink:href="#m67ad37c1cd" y="313.809944"/>
     <use style="fill:#8b0000;stroke:#8b0000;" x="284.28182" xlink:href="#m67ad37c1cd" y="315.720361"/>
     <use style="fill:#8b0000;stroke:#8b0000;" x="274.835067" xlink:href="#m67ad37c1cd" y="316.687339"/>
     <use style="fill:#8b0000;stroke:#8b0000;" x="286.586546" xlink:href="#m67ad37c1cd" y="299.611691"/>
    </g>
   </g>
   <g id="PathCollection_6">
    <defs>
     <path d="M 0 1.581139 
C 0.419323 1.581139 0.821528 1.41454 1.118034 1.118034 
C 1.41454 0.821528 1.581139 0.419323 1.581139 0 
C 1.581139 -0.419323 1.41454 -0.821528 1.118034 -1.118034 
C 0.821528 -1.41454 0.419323 -1.581139 0 -1.581139 
C -0.419323 -1.581139 -0.821528 -1.41454 -1.118034 -1.118034 
C -1.41454 -0.821528 -1.581139 -0.419323 -1.581139 0 
C -1.581139 0.419323 -1.41454 0.821528 -1.118034 1.118034 
C -0.821528 1.41454 -0.419323 1.581139 0 1.581139 
z
" id="m1c399795b4" style="stroke:#9400d3;"/>
    </defs>
    <g clip-path="url(#p25ac460a73)">
     <use style="fill:#9400d3;stroke:#9400d3;" x="138.589891" xlink:href="#m1c399795b4" y="149.25022"/>
     <use style="fill:#9400d3;stroke:#9400d3;" x="110.600975" xlink:href="#m1c399795b4" y="153.57841"/>
     <use style="fill:#9400d3;stroke:#9400d3;" x="124.030182" xlink:href="#m1c399795b4" y="153.53566"/>
     <use style="fill:#9400d3;stroke:#9400d3;" x="113.125996" xlink:href="#m1c399795b4" y="162.665916"/>
     <use style="fill:#9400d3;stroke:#9400d3;" x="150.987992" xlink:href="#m1c399795b4" y="146.460392"/>
     <use style="fill:#9400d3;stroke:#9400d3;" x="133.03821" xlink:href="#m1c399795b4" y="162.706198"/>
     <use style="fill:#9400d3;stroke:#9400d3;" x="102.076331" xlink:href="#m1c399795b4" y="135.020837"/>
     <use style="fill:#9400d3;stroke:#9400d3;" x="109.811986" xlink:href="#m1c399795b4" y="159.146866"/>
     <use style="fill:#9400d3;stroke:#9400d3;" x="125.026387" xlink:href="#m1c399795b4" y="161.881557"/>
     <use style="fill:#9400d3;stroke:#9400d3;" x="96.420962" xlink:href="#m1c399795b4" y="156.4714"/>
     <use style="fill:#9400d3;stroke:#9400d3;" x="108.328133" xlink:href="#m1c399795b4" y="160.979494"/>
     <use style="fill:#9400d3;stroke:#9400d3;" x="102.080978" xlink:href="#m1c399795b4" y="148.559493"/>
     <use style="fill:#9400d3;stroke:#9400d3;" x="124.356797" xlink:href="#m1c399795b4" y="154.810181"/>
     <use style="fill:#9400d3;stroke:#9400d3;" x="112.305232" xlink:href="#m1c399795b4" y="159.887971"/>
     <use style="fill:#9400d3;stroke:#9400d3;" x="102.959118" xlink:href="#m1c399795b4" y="139.652387"/>
     <use style="fill:#9400d3;stroke:#9400d3;" x="140.074183" xlink:href="#m1c399795b4" y="141.093294"/>
     <use style="fill:#9400d3;stroke:#9400d3;" x="102.00751" xlink:href="#m1c399795b4" y="159.188282"/>
     <use style="fill:#9400d3;stroke:#9400d3;" x="99.192488" xlink:href="#m1c399795b4" y="157.343305"/>
     <use style="fill:#9400d3;stroke:#9400d3;" x="105.689225" xlink:href="#m1c399795b4" y="160.870481"/>
     <use style="fill:#9400d3;stroke:#9400d3;" x="105.393377" xlink:href="#m1c399795b4" y="162.052929"/>
     <use style="fill:#9400d3;stroke:#9400d3;" x="127.031188" xlink:href="#m1c399795b4" y="145.062932"/>
     <use style="fill:#9400d3;stroke:#9400d3;" x="106.61909" xlink:href="#m1c399795b4" y="155.726872"/>
     <use style="fill:#9400d3;stroke:#9400d3;" x="139.548705" xlink:href="#m1c399795b4" y="146.921378"/>
     <use style="fill:#9400d3;stroke:#9400d3;" x="96.134528" xlink:href="#m1c399795b4" y="148.013035"/>
     <use style="fill:#9400d3;stroke:#9400d3;" x="113.741703" xlink:href="#m1c399795b4" y="163.291369"/>
     <use style="fill:#9400d3;stroke:#9400d3;" x="118.576312" xlink:href="#m1c399795b4" y="154.570094"/>
     <use style="fill:#9400d3;stroke:#9400d3;" x="107.288903" xlink:href="#m1c399795b4" y="155.173906"/>
     <use style="fill:#9400d3;stroke:#9400d3;" x="136.318287" xlink:href="#m1c399795b4" y="146.17407"/>
     <use style="fill:#9400d3;stroke:#9400d3;" x="101.028883" xlink:href="#m1c399795b4" y="142.42274"/>
     <use style="fill:#9400d3;stroke:#9400d3;" x="119.88827" xlink:href="#m1c399795b4" y="157.631888"/>
    </g>
   </g>
   <g id="PathCollection_7">
    <defs>
     <path d="M 0 1.581139 
C 0.419323 1.581139 0.821528 1.41454 1.118034 1.118034 
C 1.41454 0.821528 1.581139 0.419323 1.581139 0 
C 1.581139 -0.419323 1.41454 -0.821528 1.118034 -1.118034 
C 0.821528 -1.41454 0.419323 -1.581139 0 -1.581139 
C -0.419323 -1.581139 -0.821528 -1.41454 -1.118034 -1.118034 
C -1.41454 -0.821528 -1.581139 -0.419323 -1.581139 0 
C -1.581139 0.419323 -1.41454 0.821528 -1.118034 1.118034 
C -0.821528 1.41454 -0.419323 1.581139 0 1.581139 
z
" id="m3f48e5789c" style="stroke:#00bfff;"/>
    </defs>
    <g clip-path="url(#p25ac460a73)">
     <use style="fill:#00bfff;stroke:#00bfff;" x="158.677035" xlink:href="#m3f48e5789c" y="118.199942"/>
     <use style="fill:#00bfff;stroke:#00bfff;" x="173.190677" xlink:href="#m3f48e5789c" y="119.297424"/>
     <use style="fill:#00bfff;stroke:#00bfff;" x="169.415678" xlink:href="#m3f48e5789c" y="128.604311"/>
     <use style="fill:#00bfff;stroke:#00bfff;" x="155.927651" xlink:href="#m3f48e5789c" y="119.642895"/>
     <use style="fill:#00bfff;stroke:#00bfff;" x="182.9665" xlink:href="#m3f48e5789c" y="111.358079"/>
     <use style="fill:#00bfff;stroke:#00bfff;" x="156.126163" xlink:href="#m3f48e5789c" y="127.23019"/>
     <use style="fill:#00bfff;stroke:#00bfff;" x="178.040872" xlink:href="#m3f48e5789c" y="122.157291"/>
     <use style="fill:#00bfff;stroke:#00bfff;" x="235.223608" xlink:href="#m3f48e5789c" y="43.2"/>
     <use style="fill:#00bfff;stroke:#00bfff;" x="157.7137" xlink:href="#m3f48e5789c" y="127.623515"/>
     <use style="fill:#00bfff;stroke:#00bfff;" x="171.189633" xlink:href="#m3f48e5789c" y="120.30295"/>
     <use style="fill:#00bfff;stroke:#00bfff;" x="165.709515" xlink:href="#m3f48e5789c" y="136.803427"/>
     <use style="fill:#00bfff;stroke:#00bfff;" x="190.697939" xlink:href="#m3f48e5789c" y="110.052714"/>
     <use style="fill:#00bfff;stroke:#00bfff;" x="177.740847" xlink:href="#m3f48e5789c" y="110.040632"/>
     <use style="fill:#00bfff;stroke:#00bfff;" x="204.37234" xlink:href="#m3f48e5789c" y="105.782687"/>
     <use style="fill:#00bfff;stroke:#00bfff;" x="157.15237" xlink:href="#m3f48e5789c" y="116.432599"/>
     <use style="fill:#00bfff;stroke:#00bfff;" x="154.264323" xlink:href="#m3f48e5789c" y="111.993682"/>
     <use style="fill:#00bfff;stroke:#00bfff;" x="172.565463" xlink:href="#m3f48e5789c" y="118.537637"/>
     <use style="fill:#00bfff;stroke:#00bfff;" x="153.4675" xlink:href="#m3f48e5789c" y="116.906369"/>
     <use style="fill:#00bfff;stroke:#00bfff;" x="180.274244" xlink:href="#m3f48e5789c" y="112.518346"/>
     <use style="fill:#00bfff;stroke:#00bfff;" x="228.057369" xlink:href="#m3f48e5789c" y="80.791416"/>
     <use style="fill:#00bfff;stroke:#00bfff;" x="181.069904" xlink:href="#m3f48e5789c" y="124.714405"/>
     <use style="fill:#00bfff;stroke:#00bfff;" x="164.749841" xlink:href="#m3f48e5789c" y="125.899239"/>
     <use style="fill:#00bfff;stroke:#00bfff;" x="168.728571" xlink:href="#m3f48e5789c" y="126.421484"/>
     <use style="fill:#00bfff;stroke:#00bfff;" x="173.493198" xlink:href="#m3f48e5789c" y="106.950084"/>
     <use style="fill:#00bfff;stroke:#00bfff;" x="200.394006" xlink:href="#m3f48e5789c" y="108.024114"/>
     <use style="fill:#00bfff;stroke:#00bfff;" x="205.273962" xlink:href="#m3f48e5789c" y="105.100282"/>
     <use style="fill:#00bfff;stroke:#00bfff;" x="170.896102" xlink:href="#m3f48e5789c" y="122.451875"/>
     <use style="fill:#00bfff;stroke:#00bfff;" x="165.002099" xlink:href="#m3f48e5789c" y="115.939578"/>
     <use style="fill:#00bfff;stroke:#00bfff;" x="161.108478" xlink:href="#m3f48e5789c" y="116.722477"/>
     <use style="fill:#00bfff;stroke:#00bfff;" x="191.911587" xlink:href="#m3f48e5789c" y="122.628555"/>
    </g>
   </g>
   <g id="matplotlib.axis_1">
    <g id="xtick_1">
     <g id="line2d_1">
      <defs>
       <path d="M 0 0 
L 0 3.5 
" id="mcaabd497c8" style="stroke:#000000;stroke-width:0.8;"/>
      </defs>
      <g>
       <use style="stroke:#000000;stroke-width:0.8;" x="54" xlink:href="#mcaabd497c8" y="320.4"/>
      </g>
     </g>
     <g id="text_1">
      <!-- 0.0 -->
      <g transform="translate(46.048437 334.998438)scale(0.1 -0.1)">
       <defs>
        <path d="M 31.78125 66.40625 
Q 24.171875 66.40625 20.328125 58.90625 
Q 16.5 51.421875 16.5 36.375 
Q 16.5 21.390625 20.328125 13.890625 
Q 24.171875 6.390625 31.78125 6.390625 
Q 39.453125 6.390625 43.28125 13.890625 
Q 47.125 21.390625 47.125 36.375 
Q 47.125 51.421875 43.28125 58.90625 
Q 39.453125 66.40625 31.78125 66.40625 
z
M 31.78125 74.21875 
Q 44.046875 74.21875 50.515625 64.515625 
Q 56.984375 54.828125 56.984375 36.375 
Q 56.984375 17.96875 50.515625 8.265625 
Q 44.046875 -1.421875 31.78125 -1.421875 
Q 19.53125 -1.421875 13.0625 8.265625 
Q 6.59375 17.96875 6.59375 36.375 
Q 6.59375 54.828125 13.0625 64.515625 
Q 19.53125 74.21875 31.78125 74.21875 
z
" id="DejaVuSans-48"/>
        <path d="M 10.6875 12.40625 
L 21 12.40625 
L 21 0 
L 10.6875 0 
z
" id="DejaVuSans-46"/>
       </defs>
       <use xlink:href="#DejaVuSans-48"/>
       <use x="63.623047" xlink:href="#DejaVuSans-46"/>
       <use x="95.410156" xlink:href="#DejaVuSans-48"/>
      </g>
     </g>
    </g>
    <g id="xtick_2">
     <g id="line2d_2">
      <g>
       <use style="stroke:#000000;stroke-width:0.8;" x="120.96" xlink:href="#mcaabd497c8" y="320.4"/>
      </g>
     </g>
     <g id="text_2">
      <!-- 0.2 -->
      <g transform="translate(113.008438 334.998438)scale(0.1 -0.1)">
       <defs>
        <path d="M 19.1875 8.296875 
L 53.609375 8.296875 
L 53.609375 0 
L 7.328125 0 
L 7.328125 8.296875 
Q 12.9375 14.109375 22.625 23.890625 
Q 32.328125 33.6875 34.8125 36.53125 
Q 39.546875 41.84375 41.421875 45.53125 
Q 43.3125 49.21875 43.3125 52.78125 
Q 43.3125 58.59375 39.234375 62.25 
Q 35.15625 65.921875 28.609375 65.921875 
Q 23.96875 65.921875 18.8125 64.3125 
Q 13.671875 62.703125 7.8125 59.421875 
L 7.8125 69.390625 
Q 13.765625 71.78125 18.9375 73 
Q 24.125 74.21875 28.421875 74.21875 
Q 39.75 74.21875 46.484375 68.546875 
Q 53.21875 62.890625 53.21875 53.421875 
Q 53.21875 48.921875 51.53125 44.890625 
Q 49.859375 40.875 45.40625 35.40625 
Q 44.1875 33.984375 37.640625 27.21875 
Q 31.109375 20.453125 19.1875 8.296875 
z
" id="DejaVuSans-50"/>
       </defs>
       <use xlink:href="#DejaVuSans-48"/>
       <use x="63.623047" xlink:href="#DejaVuSans-46"/>
       <use x="95.410156" xlink:href="#DejaVuSans-50"/>
      </g>
     </g>
    </g>
    <g id="xtick_3">
     <g id="line2d_3">
      <g>
       <use style="stroke:#000000;stroke-width:0.8;" x="187.92" xlink:href="#mcaabd497c8" y="320.4"/>
      </g>
     </g>
     <g id="text_3">
      <!-- 0.4 -->
      <g transform="translate(179.968438 334.998438)scale(0.1 -0.1)">
       <defs>
        <path d="M 37.796875 64.3125 
L 12.890625 25.390625 
L 37.796875 25.390625 
z
M 35.203125 72.90625 
L 47.609375 72.90625 
L 47.609375 25.390625 
L 58.015625 25.390625 
L 58.015625 17.1875 
L 47.609375 17.1875 
L 47.609375 0 
L 37.796875 0 
L 37.796875 17.1875 
L 4.890625 17.1875 
L 4.890625 26.703125 
z
" id="DejaVuSans-52"/>
       </defs>
       <use xlink:href="#DejaVuSans-48"/>
       <use x="63.623047" xlink:href="#DejaVuSans-46"/>
       <use x="95.410156" xlink:href="#DejaVuSans-52"/>
      </g>
     </g>
    </g>
    <g id="xtick_4">
     <g id="line2d_4">
      <g>
       <use style="stroke:#000000;stroke-width:0.8;" x="254.88" xlink:href="#mcaabd497c8" y="320.4"/>
      </g>
     </g>
     <g id="text_4">
      <!-- 0.6 -->
      <g transform="translate(246.928438 334.998438)scale(0.1 -0.1)">
       <defs>
        <path d="M 33.015625 40.375 
Q 26.375 40.375 22.484375 35.828125 
Q 18.609375 31.296875 18.609375 23.390625 
Q 18.609375 15.53125 22.484375 10.953125 
Q 26.375 6.390625 33.015625 6.390625 
Q 39.65625 6.390625 43.53125 10.953125 
Q 47.40625 15.53125 47.40625 23.390625 
Q 47.40625 31.296875 43.53125 35.828125 
Q 39.65625 40.375 33.015625 40.375 
z
M 52.59375 71.296875 
L 52.59375 62.3125 
Q 48.875 64.0625 45.09375 64.984375 
Q 41.3125 65.921875 37.59375 65.921875 
Q 27.828125 65.921875 22.671875 59.328125 
Q 17.53125 52.734375 16.796875 39.40625 
Q 19.671875 43.65625 24.015625 45.921875 
Q 28.375 48.1875 33.59375 48.1875 
Q 44.578125 48.1875 50.953125 41.515625 
Q 57.328125 34.859375 57.328125 23.390625 
Q 57.328125 12.15625 50.6875 5.359375 
Q 44.046875 -1.421875 33.015625 -1.421875 
Q 20.359375 -1.421875 13.671875 8.265625 
Q 6.984375 17.96875 6.984375 36.375 
Q 6.984375 53.65625 15.1875 63.9375 
Q 23.390625 74.21875 37.203125 74.21875 
Q 40.921875 74.21875 44.703125 73.484375 
Q 48.484375 72.75 52.59375 71.296875 
z
" id="DejaVuSans-54"/>
       </defs>
       <use xlink:href="#DejaVuSans-48"/>
       <use x="63.623047" xlink:href="#DejaVuSans-46"/>
       <use x="95.410156" xlink:href="#DejaVuSans-54"/>
      </g>
     </g>
    </g>
    <g id="xtick_5">
     <g id="line2d_5">
      <g>
       <use style="stroke:#000000;stroke-width:0.8;" x="321.84" xlink:href="#mcaabd497c8" y="320.4"/>
      </g>
     </g>
     <g id="text_5">
      <!-- 0.8 -->
      <g transform="translate(313.888438 334.998438)scale(0.1 -0.1)">
       <defs>
        <path d="M 31.78125 34.625 
Q 24.75 34.625 20.71875 30.859375 
Q 16.703125 27.09375 16.703125 20.515625 
Q 16.703125 13.921875 20.71875 10.15625 
Q 24.75 6.390625 31.78125 6.390625 
Q 38.8125 6.390625 42.859375 10.171875 
Q 46.921875 13.96875 46.921875 20.515625 
Q 46.921875 27.09375 42.890625 30.859375 
Q 38.875 34.625 31.78125 34.625 
z
M 21.921875 38.8125 
Q 15.578125 40.375 12.03125 44.71875 
Q 8.5 49.078125 8.5 55.328125 
Q 8.5 64.0625 14.71875 69.140625 
Q 20.953125 74.21875 31.78125 74.21875 
Q 42.671875 74.21875 48.875 69.140625 
Q 55.078125 64.0625 55.078125 55.328125 
Q 55.078125 49.078125 51.53125 44.71875 
Q 48 40.375 41.703125 38.8125 
Q 48.828125 37.15625 52.796875 32.3125 
Q 56.78125 27.484375 56.78125 20.515625 
Q 56.78125 9.90625 50.3125 4.234375 
Q 43.84375 -1.421875 31.78125 -1.421875 
Q 19.734375 -1.421875 13.25 4.234375 
Q 6.78125 9.90625 6.78125 20.515625 
Q 6.78125 27.484375 10.78125 32.3125 
Q 14.796875 37.15625 21.921875 38.8125 
z
M 18.3125 54.390625 
Q 18.3125 48.734375 21.84375 45.5625 
Q 25.390625 42.390625 31.78125 42.390625 
Q 38.140625 42.390625 41.71875 45.5625 
Q 45.3125 48.734375 45.3125 54.390625 
Q 45.3125 60.0625 41.71875 63.234375 
Q 38.140625 66.40625 31.78125 66.40625 
Q 25.390625 66.40625 21.84375 63.234375 
Q 18.3125 60.0625 18.3125 54.390625 
z
" id="DejaVuSans-56"/>
       </defs>
       <use xlink:href="#DejaVuSans-48"/>
       <use x="63.623047" xlink:href="#DejaVuSans-46"/>
       <use x="95.410156" xlink:href="#DejaVuSans-56"/>
      </g>
     </g>
    </g>
    <g id="xtick_6">
     <g id="line2d_6">
      <g>
       <use style="stroke:#000000;stroke-width:0.8;" x="388.8" xlink:href="#mcaabd497c8" y="320.4"/>
      </g>
     </g>
     <g id="text_6">
      <!-- 1.0 -->
      <g transform="translate(380.848437 334.998438)scale(0.1 -0.1)">
       <defs>
        <path d="M 12.40625 8.296875 
L 28.515625 8.296875 
L 28.515625 63.921875 
L 10.984375 60.40625 
L 10.984375 69.390625 
L 28.421875 72.90625 
L 38.28125 72.90625 
L 38.28125 8.296875 
L 54.390625 8.296875 
L 54.390625 0 
L 12.40625 0 
z
" id="DejaVuSans-49"/>
       </defs>
       <use xlink:href="#DejaVuSans-49"/>
       <use x="63.623047" xlink:href="#DejaVuSans-46"/>
       <use x="95.410156" xlink:href="#DejaVuSans-48"/>
      </g>
     </g>
    </g>
   </g>
   <g id="matplotlib.axis_2">
    <g id="ytick_1">
     <g id="line2d_7">
      <defs>
       <path d="M 0 0 
L -3.5 0 
" id="m2bcb90f480" style="stroke:#000000;stroke-width:0.8;"/>
      </defs>
      <g>
       <use style="stroke:#000000;stroke-width:0.8;" x="54" xlink:href="#m2bcb90f480" y="320.4"/>
      </g>
     </g>
     <g id="text_7">
      <!-- 0.0 -->
      <g transform="translate(31.096875 324.199219)scale(0.1 -0.1)">
       <use xlink:href="#DejaVuSans-48"/>
       <use x="63.623047" xlink:href="#DejaVuSans-46"/>
       <use x="95.410156" xlink:href="#DejaVuSans-48"/>
      </g>
     </g>
    </g>
    <g id="ytick_2">
     <g id="line2d_8">
      <g>
       <use style="stroke:#000000;stroke-width:0.8;" x="54" xlink:href="#m2bcb90f480" y="264.96"/>
      </g>
     </g>
     <g id="text_8">
      <!-- 0.2 -->
      <g transform="translate(31.096875 268.759219)scale(0.1 -0.1)">
       <use xlink:href="#DejaVuSans-48"/>
       <use x="63.623047" xlink:href="#DejaVuSans-46"/>
       <use x="95.410156" xlink:href="#DejaVuSans-50"/>
      </g>
     </g>
    </g>
    <g id="ytick_3">
     <g id="line2d_9">
      <g>
       <use style="stroke:#000000;stroke-width:0.8;" x="54" xlink:href="#m2bcb90f480" y="209.52"/>
      </g>
     </g>
     <g id="text_9">
      <!-- 0.4 -->
      <g transform="translate(31.096875 213.319219)scale(0.1 -0.1)">
       <use xlink:href="#DejaVuSans-48"/>
       <use x="63.623047" xlink:href="#DejaVuSans-46"/>
       <use x="95.410156" xlink:href="#DejaVuSans-52"/>
      </g>
     </g>
    </g>
    <g id="ytick_4">
     <g id="line2d_10">
      <g>
       <use style="stroke:#000000;stroke-width:0.8;" x="54" xlink:href="#m2bcb90f480" y="154.08"/>
      </g>
     </g>
     <g id="text_10">
      <!-- 0.6 -->
      <g transform="translate(31.096875 157.879219)scale(0.1 -0.1)">
       <use xlink:href="#DejaVuSans-48"/>
       <use x="63.623047" xlink:href="#DejaVuSans-46"/>
       <use x="95.410156" xlink:href="#DejaVuSans-54"/>
      </g>
     </g>
    </g>
    <g id="ytick_5">
     <g id="line2d_11">
      <g>
       <use style="stroke:#000000;stroke-width:0.8;" x="54" xlink:href="#m2bcb90f480" y="98.64"/>
      </g>
     </g>
     <g id="text_11">
      <!-- 0.8 -->
      <g transform="translate(31.096875 102.439219)scale(0.1 -0.1)">
       <use xlink:href="#DejaVuSans-48"/>
       <use x="63.623047" xlink:href="#DejaVuSans-46"/>
       <use x="95.410156" xlink:href="#DejaVuSans-56"/>
      </g>
     </g>
    </g>
    <g id="ytick_6">
     <g id="line2d_12">
      <g>
       <use style="stroke:#000000;stroke-width:0.8;" x="54" xlink:href="#m2bcb90f480" y="43.2"/>
      </g>
     </g>
     <g id="text_12">
      <!-- 1.0 -->
      <g transform="translate(31.096875 46.999219)scale(0.1 -0.1)">
       <use xlink:href="#DejaVuSans-49"/>
       <use x="63.623047" xlink:href="#DejaVuSans-46"/>
       <use x="95.410156" xlink:href="#DejaVuSans-48"/>
      </g>
     </g>
    </g>
   </g>
   <g id="patch_3">
    <path d="M 54 320.4 
L 54 43.2 
" style="fill:none;stroke:#000000;stroke-linecap:square;stroke-linejoin:miter;stroke-width:0.8;"/>
   </g>
   <g id="patch_4">
    <path d="M 388.8 320.4 
L 388.8 43.2 
" style="fill:none;stroke:#000000;stroke-linecap:square;stroke-linejoin:miter;stroke-width:0.8;"/>
   </g>
   <g id="patch_5">
    <path d="M 54 320.4 
L 388.8 320.4 
" style="fill:none;stroke:#000000;stroke-linecap:square;stroke-linejoin:miter;stroke-width:0.8;"/>
   </g>
   <g id="patch_6">
    <path d="M 54 43.2 
L 388.8 43.2 
" style="fill:none;stroke:#000000;stroke-linecap:square;stroke-linejoin:miter;stroke-width:0.8;"/>
   </g>
   <g id="legend_1">
    <g id="patch_7">
     <path d="M 61 315.4 
L 209.753125 315.4 
Q 211.753125 315.4 211.753125 313.4 
L 211.753125 211.653125 
Q 211.753125 209.653125 209.753125 209.653125 
L 61 209.653125 
Q 59 209.653125 59 211.653125 
L 59 313.4 
Q 59 315.4 61 315.4 
z
" style="fill:#ffffff;opacity:0.8;stroke:#cccccc;stroke-linejoin:miter;"/>
    </g>
    <g id="PathCollection_8">
     <g>
      <use style="fill:#a9a9a9;stroke:#a9a9a9;" x="73" xlink:href="#m22807ffd66" y="218.626563"/>
     </g>
    </g>
    <g id="text_13">
     <!-- play music -->
     <g transform="translate(91 221.251563)scale(0.1 -0.1)">
      <defs>
       <path d="M 18.109375 8.203125 
L 18.109375 -20.796875 
L 9.078125 -20.796875 
L 9.078125 54.6875 
L 18.109375 54.6875 
L 18.109375 46.390625 
Q 20.953125 51.265625 25.265625 53.625 
Q 29.59375 56 35.59375 56 
Q 45.5625 56 51.78125 48.09375 
Q 58.015625 40.1875 58.015625 27.296875 
Q 58.015625 14.40625 51.78125 6.484375 
Q 45.5625 -1.421875 35.59375 -1.421875 
Q 29.59375 -1.421875 25.265625 0.953125 
Q 20.953125 3.328125 18.109375 8.203125 
z
M 48.6875 27.296875 
Q 48.6875 37.203125 44.609375 42.84375 
Q 40.53125 48.484375 33.40625 48.484375 
Q 26.265625 48.484375 22.1875 42.84375 
Q 18.109375 37.203125 18.109375 27.296875 
Q 18.109375 17.390625 22.1875 11.75 
Q 26.265625 6.109375 33.40625 6.109375 
Q 40.53125 6.109375 44.609375 11.75 
Q 48.6875 17.390625 48.6875 27.296875 
z
" id="DejaVuSans-112"/>
       <path d="M 9.421875 75.984375 
L 18.40625 75.984375 
L 18.40625 0 
L 9.421875 0 
z
" id="DejaVuSans-108"/>
       <path d="M 34.28125 27.484375 
Q 23.390625 27.484375 19.1875 25 
Q 14.984375 22.515625 14.984375 16.5 
Q 14.984375 11.71875 18.140625 8.90625 
Q 21.296875 6.109375 26.703125 6.109375 
Q 34.1875 6.109375 38.703125 11.40625 
Q 43.21875 16.703125 43.21875 25.484375 
L 43.21875 27.484375 
z
M 52.203125 31.203125 
L 52.203125 0 
L 43.21875 0 
L 43.21875 8.296875 
Q 40.140625 3.328125 35.546875 0.953125 
Q 30.953125 -1.421875 24.3125 -1.421875 
Q 15.921875 -1.421875 10.953125 3.296875 
Q 6 8.015625 6 15.921875 
Q 6 25.140625 12.171875 29.828125 
Q 18.359375 34.515625 30.609375 34.515625 
L 43.21875 34.515625 
L 43.21875 35.40625 
Q 43.21875 41.609375 39.140625 45 
Q 35.0625 48.390625 27.6875 48.390625 
Q 23 48.390625 18.546875 47.265625 
Q 14.109375 46.140625 10.015625 43.890625 
L 10.015625 52.203125 
Q 14.9375 54.109375 19.578125 55.046875 
Q 24.21875 56 28.609375 56 
Q 40.484375 56 46.34375 49.84375 
Q 52.203125 43.703125 52.203125 31.203125 
z
" id="DejaVuSans-97"/>
       <path d="M 32.171875 -5.078125 
Q 28.375 -14.84375 24.75 -17.8125 
Q 21.140625 -20.796875 15.09375 -20.796875 
L 7.90625 -20.796875 
L 7.90625 -13.28125 
L 13.1875 -13.28125 
Q 16.890625 -13.28125 18.9375 -11.515625 
Q 21 -9.765625 23.484375 -3.21875 
L 25.09375 0.875 
L 2.984375 54.6875 
L 12.5 54.6875 
L 29.59375 11.921875 
L 46.6875 54.6875 
L 56.203125 54.6875 
z
" id="DejaVuSans-121"/>
       <path id="DejaVuSans-32"/>
       <path d="M 52 44.1875 
Q 55.375 50.25 60.0625 53.125 
Q 64.75 56 71.09375 56 
Q 79.640625 56 84.28125 50.015625 
Q 88.921875 44.046875 88.921875 33.015625 
L 88.921875 0 
L 79.890625 0 
L 79.890625 32.71875 
Q 79.890625 40.578125 77.09375 44.375 
Q 74.3125 48.1875 68.609375 48.1875 
Q 61.625 48.1875 57.5625 43.546875 
Q 53.515625 38.921875 53.515625 30.90625 
L 53.515625 0 
L 44.484375 0 
L 44.484375 32.71875 
Q 44.484375 40.625 41.703125 44.40625 
Q 38.921875 48.1875 33.109375 48.1875 
Q 26.21875 48.1875 22.15625 43.53125 
Q 18.109375 38.875 18.109375 30.90625 
L 18.109375 0 
L 9.078125 0 
L 9.078125 54.6875 
L 18.109375 54.6875 
L 18.109375 46.1875 
Q 21.1875 51.21875 25.484375 53.609375 
Q 29.78125 56 35.6875 56 
Q 41.65625 56 45.828125 52.96875 
Q 50 49.953125 52 44.1875 
z
" id="DejaVuSans-109"/>
       <path d="M 8.5 21.578125 
L 8.5 54.6875 
L 17.484375 54.6875 
L 17.484375 21.921875 
Q 17.484375 14.15625 20.5 10.265625 
Q 23.53125 6.390625 29.59375 6.390625 
Q 36.859375 6.390625 41.078125 11.03125 
Q 45.3125 15.671875 45.3125 23.6875 
L 45.3125 54.6875 
L 54.296875 54.6875 
L 54.296875 0 
L 45.3125 0 
L 45.3125 8.40625 
Q 42.046875 3.421875 37.71875 1 
Q 33.40625 -1.421875 27.6875 -1.421875 
Q 18.265625 -1.421875 13.375 4.4375 
Q 8.5 10.296875 8.5 21.578125 
z
M 31.109375 56 
z
" id="DejaVuSans-117"/>
       <path d="M 44.28125 53.078125 
L 44.28125 44.578125 
Q 40.484375 46.53125 36.375 47.5 
Q 32.28125 48.484375 27.875 48.484375 
Q 21.1875 48.484375 17.84375 46.4375 
Q 14.5 44.390625 14.5 40.28125 
Q 14.5 37.15625 16.890625 35.375 
Q 19.28125 33.59375 26.515625 31.984375 
L 29.59375 31.296875 
Q 39.15625 29.25 43.1875 25.515625 
Q 47.21875 21.78125 47.21875 15.09375 
Q 47.21875 7.46875 41.1875 3.015625 
Q 35.15625 -1.421875 24.609375 -1.421875 
Q 20.21875 -1.421875 15.453125 -0.5625 
Q 10.6875 0.296875 5.421875 2 
L 5.421875 11.28125 
Q 10.40625 8.6875 15.234375 7.390625 
Q 20.0625 6.109375 24.8125 6.109375 
Q 31.15625 6.109375 34.5625 8.28125 
Q 37.984375 10.453125 37.984375 14.40625 
Q 37.984375 18.0625 35.515625 20.015625 
Q 33.0625 21.96875 24.703125 23.78125 
L 21.578125 24.515625 
Q 13.234375 26.265625 9.515625 29.90625 
Q 5.8125 33.546875 5.8125 39.890625 
Q 5.8125 47.609375 11.28125 51.796875 
Q 16.75 56 26.8125 56 
Q 31.78125 56 36.171875 55.265625 
Q 40.578125 54.546875 44.28125 53.078125 
z
" id="DejaVuSans-115"/>
       <path d="M 9.421875 54.6875 
L 18.40625 54.6875 
L 18.40625 0 
L 9.421875 0 
z
M 9.421875 75.984375 
L 18.40625 75.984375 
L 18.40625 64.59375 
L 9.421875 64.59375 
z
" id="DejaVuSans-105"/>
       <path d="M 48.78125 52.59375 
L 48.78125 44.1875 
Q 44.96875 46.296875 41.140625 47.34375 
Q 37.3125 48.390625 33.40625 48.390625 
Q 24.65625 48.390625 19.8125 42.84375 
Q 14.984375 37.3125 14.984375 27.296875 
Q 14.984375 17.28125 19.8125 11.734375 
Q 24.65625 6.203125 33.40625 6.203125 
Q 37.3125 6.203125 41.140625 7.25 
Q 44.96875 8.296875 48.78125 10.40625 
L 48.78125 2.09375 
Q 45.015625 0.34375 40.984375 -0.53125 
Q 36.96875 -1.421875 32.421875 -1.421875 
Q 20.0625 -1.421875 12.78125 6.34375 
Q 5.515625 14.109375 5.515625 27.296875 
Q 5.515625 40.671875 12.859375 48.328125 
Q 20.21875 56 33.015625 56 
Q 37.15625 56 41.109375 55.140625 
Q 45.0625 54.296875 48.78125 52.59375 
z
" id="DejaVuSans-99"/>
      </defs>
      <use xlink:href="#DejaVuSans-112"/>
      <use x="63.476562" xlink:href="#DejaVuSans-108"/>
      <use x="91.259766" xlink:href="#DejaVuSans-97"/>
      <use x="152.539062" xlink:href="#DejaVuSans-121"/>
      <use x="211.71875" xlink:href="#DejaVuSans-32"/>
      <use x="243.505859" xlink:href="#DejaVuSans-109"/>
      <use x="340.917969" xlink:href="#DejaVuSans-117"/>
      <use x="404.296875" xlink:href="#DejaVuSans-115"/>
      <use x="456.396484" xlink:href="#DejaVuSans-105"/>
      <use x="484.179688" xlink:href="#DejaVuSans-99"/>
     </g>
    </g>
    <g id="PathCollection_9">
     <g>
      <use style="fill:#006400;stroke:#006400;" x="73" xlink:href="#m5dac3acedb" y="233.304688"/>
     </g>
    </g>
    <g id="text_14">
     <!-- search creative work -->
     <g transform="translate(91 235.929688)scale(0.1 -0.1)">
      <defs>
       <path d="M 56.203125 29.59375 
L 56.203125 25.203125 
L 14.890625 25.203125 
Q 15.484375 15.921875 20.484375 11.0625 
Q 25.484375 6.203125 34.421875 6.203125 
Q 39.59375 6.203125 44.453125 7.46875 
Q 49.3125 8.734375 54.109375 11.28125 
L 54.109375 2.78125 
Q 49.265625 0.734375 44.1875 -0.34375 
Q 39.109375 -1.421875 33.890625 -1.421875 
Q 20.796875 -1.421875 13.15625 6.1875 
Q 5.515625 13.8125 5.515625 26.8125 
Q 5.515625 40.234375 12.765625 48.109375 
Q 20.015625 56 32.328125 56 
Q 43.359375 56 49.78125 48.890625 
Q 56.203125 41.796875 56.203125 29.59375 
z
M 47.21875 32.234375 
Q 47.125 39.59375 43.09375 43.984375 
Q 39.0625 48.390625 32.421875 48.390625 
Q 24.90625 48.390625 20.390625 44.140625 
Q 15.875 39.890625 15.1875 32.171875 
z
" id="DejaVuSans-101"/>
       <path d="M 41.109375 46.296875 
Q 39.59375 47.171875 37.8125 47.578125 
Q 36.03125 48 33.890625 48 
Q 26.265625 48 22.1875 43.046875 
Q 18.109375 38.09375 18.109375 28.8125 
L 18.109375 0 
L 9.078125 0 
L 9.078125 54.6875 
L 18.109375 54.6875 
L 18.109375 46.1875 
Q 20.953125 51.171875 25.484375 53.578125 
Q 30.03125 56 36.53125 56 
Q 37.453125 56 38.578125 55.875 
Q 39.703125 55.765625 41.0625 55.515625 
z
" id="DejaVuSans-114"/>
       <path d="M 54.890625 33.015625 
L 54.890625 0 
L 45.90625 0 
L 45.90625 32.71875 
Q 45.90625 40.484375 42.875 44.328125 
Q 39.84375 48.1875 33.796875 48.1875 
Q 26.515625 48.1875 22.3125 43.546875 
Q 18.109375 38.921875 18.109375 30.90625 
L 18.109375 0 
L 9.078125 0 
L 9.078125 75.984375 
L 18.109375 75.984375 
L 18.109375 46.1875 
Q 21.34375 51.125 25.703125 53.5625 
Q 30.078125 56 35.796875 56 
Q 45.21875 56 50.046875 50.171875 
Q 54.890625 44.34375 54.890625 33.015625 
z
" id="DejaVuSans-104"/>
       <path d="M 18.3125 70.21875 
L 18.3125 54.6875 
L 36.8125 54.6875 
L 36.8125 47.703125 
L 18.3125 47.703125 
L 18.3125 18.015625 
Q 18.3125 11.328125 20.140625 9.421875 
Q 21.96875 7.515625 27.59375 7.515625 
L 36.8125 7.515625 
L 36.8125 0 
L 27.59375 0 
Q 17.1875 0 13.234375 3.875 
Q 9.28125 7.765625 9.28125 18.015625 
L 9.28125 47.703125 
L 2.6875 47.703125 
L 2.6875 54.6875 
L 9.28125 54.6875 
L 9.28125 70.21875 
z
" id="DejaVuSans-116"/>
       <path d="M 2.984375 54.6875 
L 12.5 54.6875 
L 29.59375 8.796875 
L 46.6875 54.6875 
L 56.203125 54.6875 
L 35.6875 0 
L 23.484375 0 
z
" id="DejaVuSans-118"/>
       <path d="M 4.203125 54.6875 
L 13.1875 54.6875 
L 24.421875 12.015625 
L 35.59375 54.6875 
L 46.1875 54.6875 
L 57.421875 12.015625 
L 68.609375 54.6875 
L 77.59375 54.6875 
L 63.28125 0 
L 52.6875 0 
L 40.921875 44.828125 
L 29.109375 0 
L 18.5 0 
z
" id="DejaVuSans-119"/>
       <path d="M 30.609375 48.390625 
Q 23.390625 48.390625 19.1875 42.75 
Q 14.984375 37.109375 14.984375 27.296875 
Q 14.984375 17.484375 19.15625 11.84375 
Q 23.34375 6.203125 30.609375 6.203125 
Q 37.796875 6.203125 41.984375 11.859375 
Q 46.1875 17.53125 46.1875 27.296875 
Q 46.1875 37.015625 41.984375 42.703125 
Q 37.796875 48.390625 30.609375 48.390625 
z
M 30.609375 56 
Q 42.328125 56 49.015625 48.375 
Q 55.71875 40.765625 55.71875 27.296875 
Q 55.71875 13.875 49.015625 6.21875 
Q 42.328125 -1.421875 30.609375 -1.421875 
Q 18.84375 -1.421875 12.171875 6.21875 
Q 5.515625 13.875 5.515625 27.296875 
Q 5.515625 40.765625 12.171875 48.375 
Q 18.84375 56 30.609375 56 
z
" id="DejaVuSans-111"/>
       <path d="M 9.078125 75.984375 
L 18.109375 75.984375 
L 18.109375 31.109375 
L 44.921875 54.6875 
L 56.390625 54.6875 
L 27.390625 29.109375 
L 57.625 0 
L 45.90625 0 
L 18.109375 26.703125 
L 18.109375 0 
L 9.078125 0 
z
" id="DejaVuSans-107"/>
      </defs>
      <use xlink:href="#DejaVuSans-115"/>
      <use x="52.099609" xlink:href="#DejaVuSans-101"/>
      <use x="113.623047" xlink:href="#DejaVuSans-97"/>
      <use x="174.902344" xlink:href="#DejaVuSans-114"/>
      <use x="213.765625" xlink:href="#DejaVuSans-99"/>
      <use x="268.746094" xlink:href="#DejaVuSans-104"/>
      <use x="332.125" xlink:href="#DejaVuSans-32"/>
      <use x="363.912109" xlink:href="#DejaVuSans-99"/>
      <use x="418.892578" xlink:href="#DejaVuSans-114"/>
      <use x="457.755859" xlink:href="#DejaVuSans-101"/>
      <use x="519.279297" xlink:href="#DejaVuSans-97"/>
      <use x="580.558594" xlink:href="#DejaVuSans-116"/>
      <use x="619.767578" xlink:href="#DejaVuSans-105"/>
      <use x="647.550781" xlink:href="#DejaVuSans-118"/>
      <use x="706.730469" xlink:href="#DejaVuSans-101"/>
      <use x="768.253906" xlink:href="#DejaVuSans-32"/>
      <use x="800.041016" xlink:href="#DejaVuSans-119"/>
      <use x="881.828125" xlink:href="#DejaVuSans-111"/>
      <use x="943.009766" xlink:href="#DejaVuSans-114"/>
      <use x="984.123047" xlink:href="#DejaVuSans-107"/>
     </g>
    </g>
    <g id="PathCollection_10">
     <g>
      <use style="fill:#00008b;stroke:#00008b;" x="73" xlink:href="#m48974b0e0d" y="247.982813"/>
     </g>
    </g>
    <g id="text_15">
     <!-- search screening event -->
     <g transform="translate(91 250.607813)scale(0.1 -0.1)">
      <defs>
       <path d="M 54.890625 33.015625 
L 54.890625 0 
L 45.90625 0 
L 45.90625 32.71875 
Q 45.90625 40.484375 42.875 44.328125 
Q 39.84375 48.1875 33.796875 48.1875 
Q 26.515625 48.1875 22.3125 43.546875 
Q 18.109375 38.921875 18.109375 30.90625 
L 18.109375 0 
L 9.078125 0 
L 9.078125 54.6875 
L 18.109375 54.6875 
L 18.109375 46.1875 
Q 21.34375 51.125 25.703125 53.5625 
Q 30.078125 56 35.796875 56 
Q 45.21875 56 50.046875 50.171875 
Q 54.890625 44.34375 54.890625 33.015625 
z
" id="DejaVuSans-110"/>
       <path d="M 45.40625 27.984375 
Q 45.40625 37.75 41.375 43.109375 
Q 37.359375 48.484375 30.078125 48.484375 
Q 22.859375 48.484375 18.828125 43.109375 
Q 14.796875 37.75 14.796875 27.984375 
Q 14.796875 18.265625 18.828125 12.890625 
Q 22.859375 7.515625 30.078125 7.515625 
Q 37.359375 7.515625 41.375 12.890625 
Q 45.40625 18.265625 45.40625 27.984375 
z
M 54.390625 6.78125 
Q 54.390625 -7.171875 48.1875 -13.984375 
Q 42 -20.796875 29.203125 -20.796875 
Q 24.46875 -20.796875 20.265625 -20.09375 
Q 16.0625 -19.390625 12.109375 -17.921875 
L 12.109375 -9.1875 
Q 16.0625 -11.328125 19.921875 -12.34375 
Q 23.78125 -13.375 27.78125 -13.375 
Q 36.625 -13.375 41.015625 -8.765625 
Q 45.40625 -4.15625 45.40625 5.171875 
L 45.40625 9.625 
Q 42.625 4.78125 38.28125 2.390625 
Q 33.9375 0 27.875 0 
Q 17.828125 0 11.671875 7.65625 
Q 5.515625 15.328125 5.515625 27.984375 
Q 5.515625 40.671875 11.671875 48.328125 
Q 17.828125 56 27.875 56 
Q 33.9375 56 38.28125 53.609375 
Q 42.625 51.21875 45.40625 46.390625 
L 45.40625 54.6875 
L 54.390625 54.6875 
z
" id="DejaVuSans-103"/>
      </defs>
      <use xlink:href="#DejaVuSans-115"/>
      <use x="52.099609" xlink:href="#DejaVuSans-101"/>
      <use x="113.623047" xlink:href="#DejaVuSans-97"/>
      <use x="174.902344" xlink:href="#DejaVuSans-114"/>
      <use x="213.765625" xlink:href="#DejaVuSans-99"/>
      <use x="268.746094" xlink:href="#DejaVuSans-104"/>
      <use x="332.125" xlink:href="#DejaVuSans-32"/>
      <use x="363.912109" xlink:href="#DejaVuSans-115"/>
      <use x="416.011719" xlink:href="#DejaVuSans-99"/>
      <use x="470.992188" xlink:href="#DejaVuSans-114"/>
      <use x="509.855469" xlink:href="#DejaVuSans-101"/>
      <use x="571.378906" xlink:href="#DejaVuSans-101"/>
      <use x="632.902344" xlink:href="#DejaVuSans-110"/>
      <use x="696.28125" xlink:href="#DejaVuSans-105"/>
      <use x="724.064453" xlink:href="#DejaVuSans-110"/>
      <use x="787.443359" xlink:href="#DejaVuSans-103"/>
      <use x="850.919922" xlink:href="#DejaVuSans-32"/>
      <use x="882.707031" xlink:href="#DejaVuSans-101"/>
      <use x="944.230469" xlink:href="#DejaVuSans-118"/>
      <use x="1003.410156" xlink:href="#DejaVuSans-101"/>
      <use x="1064.933594" xlink:href="#DejaVuSans-110"/>
      <use x="1128.3125" xlink:href="#DejaVuSans-116"/>
     </g>
    </g>
    <g id="PathCollection_11">
     <g>
      <use style="fill:#b8860b;stroke:#b8860b;" x="73" xlink:href="#m85a29da4aa" y="262.660938"/>
     </g>
    </g>
    <g id="text_16">
     <!-- book restaurant -->
     <g transform="translate(91 265.285938)scale(0.1 -0.1)">
      <defs>
       <path d="M 48.6875 27.296875 
Q 48.6875 37.203125 44.609375 42.84375 
Q 40.53125 48.484375 33.40625 48.484375 
Q 26.265625 48.484375 22.1875 42.84375 
Q 18.109375 37.203125 18.109375 27.296875 
Q 18.109375 17.390625 22.1875 11.75 
Q 26.265625 6.109375 33.40625 6.109375 
Q 40.53125 6.109375 44.609375 11.75 
Q 48.6875 17.390625 48.6875 27.296875 
z
M 18.109375 46.390625 
Q 20.953125 51.265625 25.265625 53.625 
Q 29.59375 56 35.59375 56 
Q 45.5625 56 51.78125 48.09375 
Q 58.015625 40.1875 58.015625 27.296875 
Q 58.015625 14.40625 51.78125 6.484375 
Q 45.5625 -1.421875 35.59375 -1.421875 
Q 29.59375 -1.421875 25.265625 0.953125 
Q 20.953125 3.328125 18.109375 8.203125 
L 18.109375 0 
L 9.078125 0 
L 9.078125 75.984375 
L 18.109375 75.984375 
z
" id="DejaVuSans-98"/>
      </defs>
      <use xlink:href="#DejaVuSans-98"/>
      <use x="63.476562" xlink:href="#DejaVuSans-111"/>
      <use x="124.658203" xlink:href="#DejaVuSans-111"/>
      <use x="185.839844" xlink:href="#DejaVuSans-107"/>
      <use x="243.75" xlink:href="#DejaVuSans-32"/>
      <use x="275.537109" xlink:href="#DejaVuSans-114"/>
      <use x="314.400391" xlink:href="#DejaVuSans-101"/>
      <use x="375.923828" xlink:href="#DejaVuSans-115"/>
      <use x="428.023438" xlink:href="#DejaVuSans-116"/>
      <use x="467.232422" xlink:href="#DejaVuSans-97"/>
      <use x="528.511719" xlink:href="#DejaVuSans-117"/>
      <use x="591.890625" xlink:href="#DejaVuSans-114"/>
      <use x="633.003906" xlink:href="#DejaVuSans-97"/>
      <use x="694.283203" xlink:href="#DejaVuSans-110"/>
      <use x="757.662109" xlink:href="#DejaVuSans-116"/>
     </g>
    </g>
    <g id="PathCollection_12">
     <g>
      <use style="fill:#8b0000;stroke:#8b0000;" x="73" xlink:href="#m67ad37c1cd" y="277.339063"/>
     </g>
    </g>
    <g id="text_17">
     <!-- get weather -->
     <g transform="translate(91 279.964063)scale(0.1 -0.1)">
      <use xlink:href="#DejaVuSans-103"/>
      <use x="63.476562" xlink:href="#DejaVuSans-101"/>
      <use x="125" xlink:href="#DejaVuSans-116"/>
      <use x="164.208984" xlink:href="#DejaVuSans-32"/>
      <use x="195.996094" xlink:href="#DejaVuSans-119"/>
      <use x="277.783203" xlink:href="#DejaVuSans-101"/>
      <use x="339.306641" xlink:href="#DejaVuSans-97"/>
      <use x="400.585938" xlink:href="#DejaVuSans-116"/>
      <use x="439.794922" xlink:href="#DejaVuSans-104"/>
      <use x="503.173828" xlink:href="#DejaVuSans-101"/>
      <use x="564.697266" xlink:href="#DejaVuSans-114"/>
     </g>
    </g>
    <g id="PathCollection_13">
     <g>
      <use style="fill:#9400d3;stroke:#9400d3;" x="73" xlink:href="#m1c399795b4" y="292.017188"/>
     </g>
    </g>
    <g id="text_18">
     <!-- add to playlist -->
     <g transform="translate(91 294.642188)scale(0.1 -0.1)">
      <defs>
       <path d="M 45.40625 46.390625 
L 45.40625 75.984375 
L 54.390625 75.984375 
L 54.390625 0 
L 45.40625 0 
L 45.40625 8.203125 
Q 42.578125 3.328125 38.25 0.953125 
Q 33.9375 -1.421875 27.875 -1.421875 
Q 17.96875 -1.421875 11.734375 6.484375 
Q 5.515625 14.40625 5.515625 27.296875 
Q 5.515625 40.1875 11.734375 48.09375 
Q 17.96875 56 27.875 56 
Q 33.9375 56 38.25 53.625 
Q 42.578125 51.265625 45.40625 46.390625 
z
M 14.796875 27.296875 
Q 14.796875 17.390625 18.875 11.75 
Q 22.953125 6.109375 30.078125 6.109375 
Q 37.203125 6.109375 41.296875 11.75 
Q 45.40625 17.390625 45.40625 27.296875 
Q 45.40625 37.203125 41.296875 42.84375 
Q 37.203125 48.484375 30.078125 48.484375 
Q 22.953125 48.484375 18.875 42.84375 
Q 14.796875 37.203125 14.796875 27.296875 
z
" id="DejaVuSans-100"/>
      </defs>
      <use xlink:href="#DejaVuSans-97"/>
      <use x="61.279297" xlink:href="#DejaVuSans-100"/>
      <use x="124.755859" xlink:href="#DejaVuSans-100"/>
      <use x="188.232422" xlink:href="#DejaVuSans-32"/>
      <use x="220.019531" xlink:href="#DejaVuSans-116"/>
      <use x="259.228516" xlink:href="#DejaVuSans-111"/>
      <use x="320.410156" xlink:href="#DejaVuSans-32"/>
      <use x="352.197266" xlink:href="#DejaVuSans-112"/>
      <use x="415.673828" xlink:href="#DejaVuSans-108"/>
      <use x="443.457031" xlink:href="#DejaVuSans-97"/>
      <use x="504.736328" xlink:href="#DejaVuSans-121"/>
      <use x="563.916016" xlink:href="#DejaVuSans-108"/>
      <use x="591.699219" xlink:href="#DejaVuSans-105"/>
      <use x="619.482422" xlink:href="#DejaVuSans-115"/>
      <use x="671.582031" xlink:href="#DejaVuSans-116"/>
     </g>
    </g>
    <g id="PathCollection_14">
     <g>
      <use style="fill:#00bfff;stroke:#00bfff;" x="73" xlink:href="#m3f48e5789c" y="306.695312"/>
     </g>
    </g>
    <g id="text_19">
     <!-- rate book -->
     <g transform="translate(91 309.320312)scale(0.1 -0.1)">
      <use xlink:href="#DejaVuSans-114"/>
      <use x="41.113281" xlink:href="#DejaVuSans-97"/>
      <use x="102.392578" xlink:href="#DejaVuSans-116"/>
      <use x="141.601562" xlink:href="#DejaVuSans-101"/>
      <use x="203.125" xlink:href="#DejaVuSans-32"/>
      <use x="234.912109" xlink:href="#DejaVuSans-98"/>
      <use x="298.388672" xlink:href="#DejaVuSans-111"/>
      <use x="359.570312" xlink:href="#DejaVuSans-111"/>
      <use x="420.751953" xlink:href="#DejaVuSans-107"/>
     </g>
    </g>
   </g>
  </g>
 </g>
 <defs>
  <clipPath id="p25ac460a73">
   <rect height="277.2" width="334.8" x="54" y="43.2"/>
  </clipPath>
 </defs>
</svg>
